<svg width="13" height="14" viewBox="0 0 13 14" fill="none" xmlns="http://www.w3.org/2000/svg">
<g clip-path="url(#clip0_134_2465)">
<path d="M1.08301 6.99999C1.08301 4.95736 1.08301 3.93578 1.71784 3.30149C2.35213 2.66666 3.37372 2.66666 5.41634 2.66666H7.58301C9.62563 2.66666 10.6472 2.66666 11.2815 3.30149C11.9163 3.93578 11.9163 4.95736 11.9163 6.99999V8.08332C11.9163 10.1259 11.9163 11.1475 11.2815 11.7818C10.6472 12.4167 9.62563 12.4167 7.58301 12.4167H5.41634C3.37372 12.4167 2.35213 12.4167 1.71784 11.7818C1.08301 11.1475 1.08301 10.1259 1.08301 8.08332V6.99999Z" stroke="#F9AD76" stroke-width="1.17689"/>
<path d="M3.79199 2.66666V1.85416M9.20866 2.66666V1.85416M1.35449 5.37499H11.6462" stroke="#F9AD76" stroke-width="1.17689" stroke-linecap="round"/>
<path d="M9.75 9.70833C9.75 9.85199 9.69293 9.98977 9.59135 10.0914C9.48977 10.1929 9.35199 10.25 9.20833 10.25C9.06467 10.25 8.9269 10.1929 8.82532 10.0914C8.72373 9.98977 8.66667 9.85199 8.66667 9.70833C8.66667 9.56467 8.72373 9.4269 8.82532 9.32532C8.9269 9.22373 9.06467 9.16667 9.20833 9.16667C9.35199 9.16667 9.48977 9.22373 9.59135 9.32532C9.69293 9.4269 9.75 9.56467 9.75 9.70833ZM9.75 7.54167C9.75 7.68533 9.69293 7.8231 9.59135 7.92468C9.48977 8.02626 9.35199 8.08333 9.20833 8.08333C9.06467 8.08333 8.9269 8.02626 8.82532 7.92468C8.72373 7.8231 8.66667 7.68533 8.66667 7.54167C8.66667 7.39801 8.72373 7.26023 8.82532 7.15865C8.9269 7.05707 9.06467 7 9.20833 7C9.35199 7 9.48977 7.05707 9.59135 7.15865C9.69293 7.26023 9.75 7.39801 9.75 7.54167ZM7.04167 9.70833C7.04167 9.85199 6.9846 9.98977 6.88302 10.0914C6.78143 10.1929 6.64366 10.25 6.5 10.25C6.35634 10.25 6.21857 10.1929 6.11698 10.0914C6.0154 9.98977 5.95833 9.85199 5.95833 9.70833C5.95833 9.56467 6.0154 9.4269 6.11698 9.32532C6.21857 9.22373 6.35634 9.16667 6.5 9.16667C6.64366 9.16667 6.78143 9.22373 6.88302 9.32532C6.9846 9.4269 7.04167 9.56467 7.04167 9.70833ZM7.04167 7.54167C7.04167 7.68533 6.9846 7.8231 6.88302 7.92468C6.78143 8.02626 6.64366 8.08333 6.5 8.08333C6.35634 8.08333 6.21857 8.02626 6.11698 7.92468C6.0154 7.8231 5.95833 7.68533 5.95833 7.54167C5.95833 7.39801 6.0154 7.26023 6.11698 7.15865C6.21857 7.05707 6.35634 7 6.5 7C6.64366 7 6.78143 7.05707 6.88302 7.15865C6.9846 7.26023 7.04167 7.39801 7.04167 7.54167ZM4.33333 9.70833C4.33333 9.85199 4.27626 9.98977 4.17468 10.0914C4.0731 10.1929 3.93533 10.25 3.79167 10.25C3.64801 10.25 3.51023 10.1929 3.40865 10.0914C3.30707 9.98977 3.25 9.85199 3.25 9.70833C3.25 9.56467 3.30707 9.4269 3.40865 9.32532C3.51023 9.22373 3.64801 9.16667 3.79167 9.16667C3.93533 9.16667 4.0731 9.22373 4.17468 9.32532C4.27626 9.4269 4.33333 9.56467 4.33333 9.70833ZM4.33333 7.54167C4.33333 7.68533 4.27626 7.8231 4.17468 7.92468C4.0731 8.02626 3.93533 8.08333 3.79167 8.08333C3.64801 8.08333 3.51023 8.02626 3.40865 7.92468C3.30707 7.8231 3.25 7.68533 3.25 7.54167C3.25 7.39801 3.30707 7.26023 3.40865 7.15865C3.51023 7.05707 3.64801 7 3.79167 7C3.93533 7 4.0731 7.05707 4.17468 7.15865C4.27626 7.26023 4.33333 7.39801 4.33333 7.54167Z" fill="#F9AD76"/>
</g>
<defs>
<clipPath id="clip0_134_2465">
<rect width="13" height="13" fill="white" transform="translate(0 0.5)"/>
</clipPath>
</defs>
</svg>
