<svg width="17" height="18" viewBox="0 0 17 18" fill="none" xmlns="http://www.w3.org/2000/svg">
<path d="M12.25 3.16667V1.5M4.75 3.16667V1.5M1.20833 5.66667H15.7917M1 9C1 5.46417 1 4.53 2.09833 3.43167C3.19667 2.33333 4.965 2.33333 8.5 2.33333C12.0358 2.33333 13.8033 2.33333 14.9017 3.43167C16 4.53 16 5.465 16 9C16 12.5358 16 14.3033 14.9017 15.4017C13.8033 16.5 12.035 16.5 8.5 16.5C4.96417 16.5 3.19667 16.5 2.09833 15.4017C1 14.3033 1 12.535 1 9Z" stroke="#4945FF" stroke-width="1.5" stroke-linecap="round" stroke-linejoin="round"/>
</svg>
