<svg width="16" height="16" viewBox="0 0 16 16" fill="none" xmlns="http://www.w3.org/2000/svg">
<path d="M10.4717 8.47167L7.13833 11.805C7.0451 11.8983 6.92626 11.9619 6.79687 11.9877C6.66748 12.0135 6.53336 12.0002 6.41147 11.9497C6.28959 11.8992 6.18543 11.8137 6.11219 11.704C6.03894 11.5943 5.9999 11.4653 6 11.3333V8.66667H0.666667C0.489856 8.66667 0.320286 8.59643 0.195262 8.47141C0.0702379 8.34638 0 8.17681 0 8C0 7.82319 0.0702379 7.65362 0.195262 7.5286C0.320286 7.40357 0.489856 7.33333 0.666667 7.33333H6V4.66667C5.9999 4.53474 6.03894 4.40574 6.11219 4.29601C6.18543 4.18628 6.28959 4.10075 6.41147 4.05025C6.53336 3.99975 6.66748 3.98655 6.79687 4.01231C6.92626 4.03808 7.0451 4.10166 7.13833 4.195L10.4717 7.52833C10.5337 7.59025 10.5828 7.66377 10.6164 7.74471C10.6499 7.82564 10.6672 7.91239 10.6672 8C10.6672 8.08761 10.6499 8.17436 10.6164 8.25529C10.5828 8.33623 10.5337 8.40975 10.4717 8.47167ZM14.6667 0H10C9.82319 0 9.65362 0.070238 9.52859 0.195262C9.40357 0.320287 9.33333 0.489856 9.33333 0.666667C9.33333 0.843478 9.40357 1.01305 9.52859 1.13807C9.65362 1.2631 9.82319 1.33333 10 1.33333H14.6667V14.6667H10C9.82319 14.6667 9.65362 14.7369 9.52859 14.8619C9.40357 14.987 9.33333 15.1565 9.33333 15.3333C9.33333 15.5101 9.40357 15.6797 9.52859 15.8047C9.65362 15.9298 9.82319 16 10 16H14.6667C15.0203 16 15.3594 15.8595 15.6095 15.6095C15.8595 15.3594 16 15.0203 16 14.6667V1.33333C16 0.979711 15.8595 0.640573 15.6095 0.390524C15.3594 0.140476 15.0203 0 14.6667 0Z" fill="#EE5E52"/>
</svg>
