<svg width="130" height="130" viewBox="0 0 130 130" fill="none" xmlns="http://www.w3.org/2000/svg">
<rect width="130" height="130" rx="9" fill="#EAEAEF"/>
<path d="M47.5125 48.64C47.5125 48.0173 48.0173 47.5125 48.64 47.5125H81.36C81.9827 47.5125 82.4875 48.0173 82.4875 48.64V81.36C82.4875 81.9827 81.9827 82.4875 81.36 82.4875H48.64C48.0173 82.4875 47.5125 81.9827 47.5125 81.36V48.64Z" stroke="#C0C0CF" stroke-width="1.025"/>
<path fill-rule="evenodd" clip-rule="evenodd" d="M53.6877 68.305L57.451 65.1833C58.0674 64.672 58.963 64.6807 59.5694 65.2039L62.8768 68.0575C63.0387 68.1972 63.2809 68.189 63.4329 68.0386L69.2314 62.3026C69.9193 61.622 71.0439 61.682 71.6555 62.4319L76.4464 68.305L77.1397 69.2169L77.2086 72.5508C77.2134 72.7814 77.027 72.9706 76.7963 72.9692L53.0733 72.8301C52.8499 72.8288 52.6687 72.6489 52.6658 72.4255L52.6218 69.0584L53.6877 68.305Z" fill="#F6F6F9"/>
<path d="M51.2898 51.9125C51.2898 51.5162 51.6111 51.195 52.0073 51.195H78.0991C78.4953 51.195 78.8166 51.5162 78.8166 51.9125V73.5889C78.8166 73.9851 78.4953 74.3064 78.0991 74.3064H52.0073C51.6111 74.3064 51.2898 73.9851 51.2898 73.5889V51.9125Z" stroke="#C0C0CF" stroke-width="1.025"/>
<ellipse cx="57.9249" cy="57.8802" rx="2.48276" ry="2.45455" fill="#EAEAEF" stroke="#C0C0CF" stroke-width="1.025"/>
<path d="M52.9629 69.0217C54.4652 67.7474 57.4699 65.1988 57.4699 65.1988C58.0946 64.6807 59.0078 64.6894 59.6222 65.2195L62.9083 68.0548C63.0723 68.1963 63.3192 68.188 63.4731 68.0358L69.2482 62.3228C69.8944 61.6836 70.9424 61.6833 71.589 62.3221C71.6308 62.3634 71.6703 62.4069 71.7074 62.4523C71.7074 62.4523 76.0136 67.8586 77.0199 69.1219" stroke="#C0C0CF" stroke-width="1.025" stroke-linecap="round"/>
</svg>
