<svg width="21" height="20" viewBox="0 0 21 20" fill="none" xmlns="http://www.w3.org/2000/svg">
<path d="M20.1488 18.375C18.7209 15.9065 16.5206 14.1365 13.9528 13.2975C15.223 12.5414 16.2098 11.3892 16.7618 10.0179C17.3137 8.64665 17.4003 7.13211 17.0082 5.70688C16.6161 4.28165 15.767 3.02454 14.5912 2.1286C13.4155 1.23266 11.9782 0.747437 10.5 0.747437C9.02182 0.747437 7.58451 1.23266 6.40878 2.1286C5.23306 3.02454 4.38394 4.28165 3.99183 5.70688C3.59971 7.13211 3.68629 8.64665 4.23825 10.0179C4.79021 11.3892 5.77704 12.5414 7.0472 13.2975C4.47938 14.1356 2.27907 15.9056 0.85126 18.375C0.798899 18.4604 0.764169 18.5554 0.749118 18.6544C0.734067 18.7534 0.739 18.8544 0.763626 18.9515C0.788252 19.0486 0.832073 19.1397 0.892502 19.2196C0.952931 19.2995 1.02874 19.3664 1.11547 19.4165C1.2022 19.4666 1.29808 19.4988 1.39745 19.5113C1.49683 19.5237 1.5977 19.5161 1.69409 19.489C1.79049 19.4618 1.88047 19.4156 1.95872 19.3531C2.03697 19.2906 2.1019 19.213 2.1497 19.125C3.91595 16.0725 7.03782 14.25 10.5 14.25C13.9622 14.25 17.0841 16.0725 18.8503 19.125C18.8981 19.213 18.9631 19.2906 19.0413 19.3531C19.1196 19.4156 19.2095 19.4618 19.3059 19.489C19.4023 19.5161 19.5032 19.5237 19.6026 19.5113C19.7019 19.4988 19.7978 19.4666 19.8845 19.4165C19.9713 19.3664 20.0471 19.2995 20.1075 19.2196C20.1679 19.1397 20.2118 19.0486 20.2364 18.9515C20.261 18.8544 20.266 18.7534 20.2509 18.6544C20.2358 18.5554 20.2011 18.4604 20.1488 18.375ZM5.25001 7.49999C5.25001 6.46164 5.55792 5.4466 6.13479 4.58324C6.71167 3.71989 7.53161 3.04698 8.49092 2.64962C9.45023 2.25226 10.5058 2.14829 11.5242 2.35086C12.5426 2.55344 13.4781 3.05345 14.2123 3.78768C14.9465 4.5219 15.4466 5.45736 15.6491 6.47576C15.8517 7.49416 15.7477 8.54976 15.3504 9.50908C14.953 10.4684 14.2801 11.2883 13.4168 11.8652C12.5534 12.4421 11.5384 12.75 10.5 12.75C9.10808 12.7485 7.77359 12.1949 6.78934 11.2107C5.8051 10.2264 5.2515 8.89192 5.25001 7.49999Z" fill="#4945FF"/>
</svg>
