<svg width="23" height="20" viewBox="0 0 23 20" fill="none" xmlns="http://www.w3.org/2000/svg">
<path d="M21.5 18.1667H20.6666V1.49999C20.6666 1.27898 20.5788 1.06701 20.4225 0.910734C20.2663 0.754454 20.0543 0.666656 19.8333 0.666656H14C13.7789 0.666656 13.567 0.754454 13.4107 0.910734C13.2544 1.06701 13.1666 1.27898 13.1666 1.49999V5.66666H8.16663C7.94561 5.66666 7.73365 5.75445 7.57737 5.91073C7.42109 6.06701 7.33329 6.27898 7.33329 6.49999V10.6667H3.16663C2.94561 10.6667 2.73365 10.7545 2.57737 10.9107C2.42109 11.067 2.33329 11.279 2.33329 11.5V18.1667H1.49996C1.27895 18.1667 1.06698 18.2545 0.910704 18.4107C0.754423 18.567 0.666626 18.779 0.666626 19C0.666626 19.221 0.754423 19.433 0.910704 19.5892C1.06698 19.7455 1.27895 19.8333 1.49996 19.8333H21.5C21.721 19.8333 21.9329 19.7455 22.0892 19.5892C22.2455 19.433 22.3333 19.221 22.3333 19C22.3333 18.779 22.2455 18.567 22.0892 18.4107C21.9329 18.2545 21.721 18.1667 21.5 18.1667ZM14.8333 2.33332H19V18.1667H14.8333V2.33332ZM8.99996 7.33332H13.1666V18.1667H8.99996V7.33332ZM3.99996 12.3333H7.33329V18.1667H3.99996V12.3333Z" fill="#DCDCE4"/>
</svg>
